{
    "asset" : {
        "generator" : "Khronos glTF Blender I/O v1.5.17",
        "version" : "2.0"
    },
    "scene" : 0,
    "scenes" : [
        {
            "name" : "Scene",
            "nodes" : [
                0,
                1,
                12
            ]
        }
    ],
    "nodes" : [
        {
            "name" : "Light",
            "rotation" : [
                0.16907575726509094,
                0.7558803558349609,
                -0.27217137813568115,
                0.570947527885437
            ],
            "translation" : [
                4.076245307922363,
                5.903861999511719,
                -1.0054539442062378
            ]
        },
        {
            "name" : "Camera",
            "rotation" : [
                0.483536034822464,
                0.33687159419059753,
                -0.20870360732078552,
                0.7804827094078064
            ],
            "translation" : [
                7.358891487121582,
                4.958309173583984,
                6.925790786743164
            ]
        },
        {
            "mesh" : 0,
            "name" : "bolts",
            "translation" : [
                -0.01904296875,
                158.81878662109375,
                7.80891227722168
            ]
        },
        {
            "mesh" : 1,
            "name" : "glass",
            "translation" : [
                -0.0787353515625,
                -302.5046081542969,
                13.307052612304688
            ]
        },
        {
            "mesh" : 2,
            "name" : "leg",
            "translation" : [
                -0.2540283203125,
                -321.2696533203125,
                8.828962326049805
            ]
        },
        {
            "mesh" : 3,
            "name" : "logo",
            "translation" : [
                -0.0057373046875,
                -289.7448425292969,
                23.655879974365234
            ]
        },
        {
            "mesh" : 4,
            "name" : "main body",
            "translation" : [
                0,
                15.2371826171875,
                -5.097214698791504
            ]
        },
        {
            "mesh" : 5,
            "name" : "metal",
            "translation" : [
                -0.0809326171875,
                -299.83599853515625,
                13.337625503540039
            ]
        },
        {
            "mesh" : 6,
            "name" : "object",
            "translation" : [
                -0.1214599609375,
                -302.6751708984375,
                13.80305290222168
            ]
        },
        {
            "mesh" : 7,
            "name" : "rubbers",
            "rotation" : [
                0.5,
                -0.5,
                0.5000000596046448,
                0.49999991059303284
            ],
            "translation" : [
                -260.567626953125,
                -334.3003845214844,
                -82.64573669433594
            ]
        },
        {
            "mesh" : 8,
            "name" : "screen",
            "translation" : [
                -0.0001220703125,
                25.828857421875,
                23.164342880249023
            ]
        },
        {
            "mesh" : 9,
            "name" : "upper metal",
            "translation" : [
                0,
                19.50115966796875,
                17.949268341064453
            ]
        },
        {
            "children" : [
                2,
                3,
                4,
                5,
                6,
                7,
                8,
                9,
                10,
                11
            ],
            "name" : "086",
            "scale" : [
                0.0010000000474974513,
                0.0010000000474974513,
                0.0010000000474974513
            ],
            "translation" : [
                0.0064618587493896484,
                0.33729416131973267,
                0
            ]
        }
    ],
    "materials" : [
        {
            "doubleSided" : true,
            "name" : "02 - Default",
            "pbrMetallicRoughness" : {
                "baseColorFactor" : [
                    0.019607843831181526,
                    0.019607843831181526,
                    0.019607843831181526,
                    1
                ],
                "roughnessFactor" : 0
            }
        },
        {
            "doubleSided" : true,
            "name" : "03 - Default",
            "pbrMetallicRoughness" : {
                "baseColorFactor" : [
                    0.027450982481241226,
                    0.027450982481241226,
                    0.027450982481241226,
                    1
                ],
                "roughnessFactor" : 0
            }
        },
        {
            "doubleSided" : true,
            "name" : "04 - Default",
            "pbrMetallicRoughness" : {
                "baseColorFactor" : [
                    0.5882353186607361,
                    0.5882353186607361,
                    0.5882353186607361,
                    1
                ],
                "roughnessFactor" : 0
            }
        },
        {
            "doubleSided" : true,
            "name" : "05 - Default",
            "pbrMetallicRoughness" : {
                "baseColorFactor" : [
                    0.09803922474384308,
                    0.09803922474384308,
                    0.09803922474384308,
                    1
                ],
                "roughnessFactor" : 0.8068127632141113
            }
        },
        {
            "doubleSided" : true,
            "name" : "01 - Default2",
            "pbrMetallicRoughness" : {
                "baseColorTexture" : {
                    "index" : 0
                },
                "roughnessFactor" : 0.858578622341156
            }
        }
    ],
    "meshes" : [
        {
            "name" : "Mesh.002",
            "primitives" : [
                {
                    "attributes" : {
                        "POSITION" : 0,
                        "NORMAL" : 1,
                        "TEXCOORD_0" : 2
                    },
                    "indices" : 3,
                    "material" : 0
                }
            ]
        },
        {
            "name" : "Mesh.006",
            "primitives" : [
                {
                    "attributes" : {
                        "POSITION" : 4,
                        "NORMAL" : 5,
                        "TEXCOORD_0" : 6
                    },
                    "indices" : 7,
                    "material" : 1
                }
            ]
        },
        {
            "name" : "Mesh.009",
            "primitives" : [
                {
                    "attributes" : {
                        "POSITION" : 8,
                        "NORMAL" : 9
                    },
                    "indices" : 10,
                    "material" : 2
                }
            ]
        },
        {
            "name" : "Mesh.003",
            "primitives" : [
                {
                    "attributes" : {
                        "POSITION" : 11,
                        "NORMAL" : 12
                    },
                    "indices" : 13,
                    "material" : 2
                }
            ]
        },
        {
            "name" : "Mesh.001",
            "primitives" : [
                {
                    "attributes" : {
                        "POSITION" : 14,
                        "NORMAL" : 15,
                        "TEXCOORD_0" : 16
                    },
                    "indices" : 17,
                    "material" : 0
                }
            ]
        },
        {
            "name" : "Mesh.005",
            "primitives" : [
                {
                    "attributes" : {
                        "POSITION" : 18,
                        "NORMAL" : 19,
                        "TEXCOORD_0" : 20
                    },
                    "indices" : 21,
                    "material" : 1
                }
            ]
        },
        {
            "name" : "Mesh.004",
            "primitives" : [
                {
                    "attributes" : {
                        "POSITION" : 22,
                        "NORMAL" : 23,
                        "TEXCOORD_0" : 24
                    },
                    "indices" : 25,
                    "material" : 1
                }
            ]
        },
        {
            "name" : "Mesh.008",
            "primitives" : [
                {
                    "attributes" : {
                        "POSITION" : 26,
                        "NORMAL" : 27,
                        "TEXCOORD_0" : 28
                    },
                    "indices" : 29,
                    "material" : 3
                }
            ]
        },
        {
            "name" : "Mesh",
            "primitives" : [
                {
                    "attributes" : {
                        "POSITION" : 30,
                        "NORMAL" : 31,
                        "TEXCOORD_0" : 32
                    },
                    "indices" : 33,
                    "material" : 4
                }
            ]
        },
        {
            "name" : "Mesh.007",
            "primitives" : [
                {
                    "attributes" : {
                        "POSITION" : 34,
                        "NORMAL" : 35,
                        "TEXCOORD_0" : 36
                    },
                    "indices" : 37,
                    "material" : 2
                }
            ]
        }
    ],
    "textures" : [
        {
            "sampler" : 0,
            "source" : 0
        }
    ],
    "images" : [
        {
            "bufferView" : 34,
            "mimeType" : "image/png",
            "name" : "tv"
        }
    ],
    "accessors" : [
        {
            "bufferView" : 0,
            "componentType" : 5126,
            "count" : 4037,
            "max" : [
                544.8217163085938,
                177.0633087158203,
                5.163261413574219
            ],
            "min" : [
                -544.8216552734375,
                -177.06329345703125,
                -5.163204193115234
            ],
            "type" : "VEC3"
        },
        {
            "bufferView" : 1,
            "componentType" : 5126,
            "count" : 4037,
            "type" : "VEC3"
        },
        {
            "bufferView" : 2,
            "componentType" : 5126,
            "count" : 4037,
            "type" : "VEC2"
        },
        {
            "bufferView" : 3,
            "componentType" : 5123,
            "count" : 11088,
            "type" : "SCALAR"
        },
        {
            "bufferView" : 4,
            "componentType" : 5126,
            "count" : 414,
            "max" : [
                106.99869537353516,
                1.6725964546203613,
                3.7059974670410156
            ],
            "min" : [
                -106.99871063232422,
                -1.6725947856903076,
                -3.7060012817382812
            ],
            "type" : "VEC3"
        },
        {
            "bufferView" : 5,
            "componentType" : 5126,
            "count" : 414,
            "type" : "VEC3"
        },
        {
            "bufferView" : 6,
            "componentType" : 5126,
            "count" : 414,
            "type" : "VEC2"
        },
        {
            "bufferView" : 7,
            "componentType" : 5123,
            "count" : 2148,
            "type" : "SCALAR"
        },
        {
            "bufferView" : 8,
            "componentType" : 5126,
            "count" : 1476,
            "max" : [
                265.2135925292969,
                25.303077697753906,
                77.17435455322266
            ],
            "min" : [
                -265.2135925292969,
                -15.309430122375488,
                -92.79082489013672
            ],
            "type" : "VEC3"
        },
        {
            "bufferView" : 9,
            "componentType" : 5126,
            "count" : 1476,
            "type" : "VEC3"
        },
        {
            "bufferView" : 10,
            "componentType" : 5123,
            "count" : 8556,
            "type" : "SCALAR"
        },
        {
            "bufferView" : 11,
            "componentType" : 5126,
            "count" : 1741,
            "max" : [
                23.486875534057617,
                4.241456031799316,
                0.17029845714569092
            ],
            "min" : [
                -23.486875534057617,
                -4.241455078125,
                -0.1702977418899536
            ],
            "type" : "VEC3"
        },
        {
            "bufferView" : 12,
            "componentType" : 5126,
            "count" : 1741,
            "type" : "VEC3"
        },
        {
            "bufferView" : 13,
            "componentType" : 5123,
            "count" : 9015,
            "type" : "SCALAR"
        },
        {
            "bufferView" : 14,
            "componentType" : 5126,
            "count" : 7712,
            "max" : [
                551.2596435546875,
                322.1028137207031,
                28.834095001220703
            ],
            "min" : [
                -551.2596435546875,
                -322.102783203125,
                -28.83399772644043
            ],
            "type" : "VEC3"
        },
        {
            "bufferView" : 15,
            "componentType" : 5126,
            "count" : 7712,
            "type" : "VEC3"
        },
        {
            "bufferView" : 16,
            "componentType" : 5126,
            "count" : 7712,
            "type" : "VEC2"
        },
        {
            "bufferView" : 17,
            "componentType" : 5123,
            "count" : 28440,
            "type" : "SCALAR"
        },
        {
            "bufferView" : 18,
            "componentType" : 5126,
            "count" : 128,
            "max" : [
                106.80718994140625,
                1.1101794242858887,
                3.2787818908691406
            ],
            "min" : [
                -106.80719757080078,
                -1.1101799011230469,
                -3.2787857055664062
            ],
            "type" : "VEC3"
        },
        {
            "bufferView" : 19,
            "componentType" : 5126,
            "count" : 128,
            "type" : "VEC3"
        },
        {
            "bufferView" : 20,
            "componentType" : 5126,
            "count" : 128,
            "type" : "VEC2"
        },
        {
            "bufferView" : 21,
            "componentType" : 5123,
            "count" : 612,
            "type" : "SCALAR"
        },
        {
            "bufferView" : 22,
            "componentType" : 5126,
            "count" : 803,
            "max" : [
                108.60079956054688,
                4.164462089538574,
                4.113334655761719
            ],
            "min" : [
                -108.60079956054688,
                -4.164462089538574,
                -4.113333702087402
            ],
            "type" : "VEC3"
        },
        {
            "bufferView" : 23,
            "componentType" : 5126,
            "count" : 803,
            "type" : "VEC3"
        },
        {
            "bufferView" : 24,
            "componentType" : 5126,
            "count" : 803,
            "type" : "VEC2"
        },
        {
            "bufferView" : 25,
            "componentType" : 5123,
            "count" : 4632,
            "type" : "SCALAR"
        },
        {
            "bufferView" : 26,
            "componentType" : 5126,
            "count" : 1628,
            "max" : [
                164.78286743164062,
                4.0655517578125,
                3.039637565612793
            ],
            "min" : [
                -2.606675148010254,
                -525.158203125,
                -5.718054294586182
            ],
            "type" : "VEC3"
        },
        {
            "bufferView" : 27,
            "componentType" : 5126,
            "count" : 1628,
            "type" : "VEC3"
        },
        {
            "bufferView" : 28,
            "componentType" : 5126,
            "count" : 1628,
            "type" : "VEC2"
        },
        {
            "bufferView" : 29,
            "componentType" : 5123,
            "count" : 8196,
            "type" : "SCALAR"
        },
        {
            "bufferView" : 30,
            "componentType" : 5126,
            "count" : 45,
            "max" : [
                540.7591552734375,
                306.0325927734375,
                0.0003247261047363281
            ],
            "min" : [
                -540.7591552734375,
                -306.0325927734375,
                -0.0005559921264648438
            ],
            "type" : "VEC3"
        },
        {
            "bufferView" : 31,
            "componentType" : 5126,
            "count" : 45,
            "type" : "VEC3"
        },
        {
            "bufferView" : 32,
            "componentType" : 5126,
            "count" : 45,
            "type" : "VEC2"
        },
        {
            "bufferView" : 33,
            "componentType" : 5123,
            "count" : 204,
            "type" : "SCALAR"
        },
        {
            "bufferView" : 35,
            "componentType" : 5126,
            "count" : 488,
            "max" : [
                551.2597045898438,
                317.8388366699219,
                5.787762641906738
            ],
            "min" : [
                -551.2596435546875,
                -317.8388366699219,
                -5.787804126739502
            ],
            "type" : "VEC3"
        },
        {
            "bufferView" : 36,
            "componentType" : 5126,
            "count" : 488,
            "type" : "VEC3"
        },
        {
            "bufferView" : 37,
            "componentType" : 5126,
            "count" : 488,
            "type" : "VEC2"
        },
        {
            "bufferView" : 38,
            "componentType" : 5123,
            "count" : 2436,
            "type" : "SCALAR"
        }
    ],
    "bufferViews" : [
        {
            "buffer" : 0,
            "byteLength" : 48444,
            "byteOffset" : 0
        },
        {
            "buffer" : 0,
            "byteLength" : 48444,
            "byteOffset" : 48444
        },
        {
            "buffer" : 0,
            "byteLength" : 32296,
            "byteOffset" : 96888
        },
        {
            "buffer" : 0,
            "byteLength" : 22176,
            "byteOffset" : 129184
        },
        {
            "buffer" : 0,
            "byteLength" : 4968,
            "byteOffset" : 151360
        },
        {
            "buffer" : 0,
            "byteLength" : 4968,
            "byteOffset" : 156328
        },
        {
            "buffer" : 0,
            "byteLength" : 3312,
            "byteOffset" : 161296
        },
        {
            "buffer" : 0,
            "byteLength" : 4296,
            "byteOffset" : 164608
        },
        {
            "buffer" : 0,
            "byteLength" : 17712,
            "byteOffset" : 168904
        },
        {
            "buffer" : 0,
            "byteLength" : 17712,
            "byteOffset" : 186616
        },
        {
            "buffer" : 0,
            "byteLength" : 17112,
            "byteOffset" : 204328
        },
        {
            "buffer" : 0,
            "byteLength" : 20892,
            "byteOffset" : 221440
        },
        {
            "buffer" : 0,
            "byteLength" : 20892,
            "byteOffset" : 242332
        },
        {
            "buffer" : 0,
            "byteLength" : 18030,
            "byteOffset" : 263224
        },
        {
            "buffer" : 0,
            "byteLength" : 92544,
            "byteOffset" : 281256
        },
        {
            "buffer" : 0,
            "byteLength" : 92544,
            "byteOffset" : 373800
        },
        {
            "buffer" : 0,
            "byteLength" : 61696,
            "byteOffset" : 466344
        },
        {
            "buffer" : 0,
            "byteLength" : 56880,
            "byteOffset" : 528040
        },
        {
            "buffer" : 0,
            "byteLength" : 1536,
            "byteOffset" : 584920
        },
        {
            "buffer" : 0,
            "byteLength" : 1536,
            "byteOffset" : 586456
        },
        {
            "buffer" : 0,
            "byteLength" : 1024,
            "byteOffset" : 587992
        },
        {
            "buffer" : 0,
            "byteLength" : 1224,
            "byteOffset" : 589016
        },
        {
            "buffer" : 0,
            "byteLength" : 9636,
            "byteOffset" : 590240
        },
        {
            "buffer" : 0,
            "byteLength" : 9636,
            "byteOffset" : 599876
        },
        {
            "buffer" : 0,
            "byteLength" : 6424,
            "byteOffset" : 609512
        },
        {
            "buffer" : 0,
            "byteLength" : 9264,
            "byteOffset" : 615936
        },
        {
            "buffer" : 0,
            "byteLength" : 19536,
            "byteOffset" : 625200
        },
        {
            "buffer" : 0,
            "byteLength" : 19536,
            "byteOffset" : 644736
        },
        {
            "buffer" : 0,
            "byteLength" : 13024,
            "byteOffset" : 664272
        },
        {
            "buffer" : 0,
            "byteLength" : 16392,
            "byteOffset" : 677296
        },
        {
            "buffer" : 0,
            "byteLength" : 540,
            "byteOffset" : 693688
        },
        {
            "buffer" : 0,
            "byteLength" : 540,
            "byteOffset" : 694228
        },
        {
            "buffer" : 0,
            "byteLength" : 360,
            "byteOffset" : 694768
        },
        {
            "buffer" : 0,
            "byteLength" : 408,
            "byteOffset" : 695128
        },
        {
            "buffer" : 0,
            "byteLength" : 669178,
            "byteOffset" : 695536
        },
        {
            "buffer" : 0,
            "byteLength" : 5856,
            "byteOffset" : 1364716
        },
        {
            "buffer" : 0,
            "byteLength" : 5856,
            "byteOffset" : 1370572
        },
        {
            "buffer" : 0,
            "byteLength" : 3904,
            "byteOffset" : 1376428
        },
        {
            "buffer" : 0,
            "byteLength" : 4872,
            "byteOffset" : 1380332
        }
    ],
    "samplers" : [
        {
            "magFilter" : 9729,
            "minFilter" : 9987
        }
    ],
    "buffers" : [
        {
            "byteLength" : 1385204,
            "uri" : "data:application/octet-stream;base64,"
        }
    ]
}
